<?xml version="1.0" encoding="UTF-8" standalone="no"?>
<!-- Created with Inkscape (http://www.inkscape.org/) -->

<svg
   xmlns:dc="http://purl.org/dc/elements/1.1/"
   xmlns:cc="http://creativecommons.org/ns#"
   xmlns:rdf="http://www.w3.org/1999/02/22-rdf-syntax-ns#"
   xmlns:svg="http://www.w3.org/2000/svg"
   xmlns="http://www.w3.org/2000/svg"
   version="1.1"
   width="48"
   height="48"
   id="svg3787">
  <defs
     id="defs3789" />
  <metadata
     id="metadata3792">
    <rdf:RDF>
      <cc:Work
         rdf:about="">
        <dc:format>image/svg+xml</dc:format>
        <dc:type
           rdf:resource="http://purl.org/dc/dcmitype/StillImage" />
        <dc:title></dc:title>
      </cc:Work>
    </rdf:RDF>
  </metadata>
  <g
     id="g3035">
    <path
       d="m 32.427005,28.46811 0.158593,12.992921 6.146646,-11.047128 z"
       id="path2989"
       style="fill:#ff0000;fill-opacity:1;stroke:#000000;stroke-width:2.14546084;stroke-linecap:butt;stroke-linejoin:miter;stroke-miterlimit:4;stroke-opacity:1;stroke-dasharray:none" />
    <path
       d="m 45.854384,20.401448 a 21.854385,13.858878 0 0 1 -43.7087678,0 21.854385,13.858878 0 1 1 43.7087678,0 z"
       id="path2985"
       style="fill:#a4c639;fill-opacity:1;fill-rule:evenodd;stroke:#000000;stroke-width:2.14546084;stroke-linecap:butt;stroke-linejoin:miter;stroke-miterlimit:4;stroke-opacity:1;stroke-dasharray:none" />
    <path
       d="m 33.414108,24.592093 0.158591,12.99293 6.146645,-11.047128 z"
       id="path2989-1"
       style="fill:#a4c639;fill-opacity:1;stroke:none" />
    <path
       d="m 11.844228,18.538014 c -0.06122,0.24924 -0.174909,0.653699 -0.341058,1.21338 -0.03936,0.131181 -0.06997,0.240494 -0.09182,0.327941 1.058147,-0.222996 1.62439,-0.334495 1.698732,-0.3345 0.529069,5e-6 0.842798,0.09948 0.94119,0.298426 0.09837,0.198955 0.147564,0.383694 0.147573,0.55422 -9e-6,0.139925 -0.07325,0.265635 -0.21972,0.377132 -0.146489,0.111502 -0.315926,0.167252 -0.508308,0.167249 -0.06123,3e-6 -0.168352,-0.0306 -0.321382,-0.09182 -0.153047,-0.06121 -0.251429,-0.09182 -0.295147,-0.09182 -0.20989,3e-6 -0.483173,0.03498 -0.819851,0.104941 -0.341066,0.07434 -0.64933,0.111503 -0.924793,0.1115 -0.08746,0.257982 -0.16179,0.47005 -0.223,0.636204 -0.06559,0.166159 -0.09839,0.30608 -0.09838,0.419765 l 0.02623,0.347617 c -7e-6,0.209883 -0.06669,0.398995 -0.200044,0.567337 -0.133369,0.168344 -0.302805,0.252515 -0.508308,0.252514 -0.1574172,1e-6 -0.2984315,-0.09401 -0.4230438,-0.282029 -0.1246224,-0.188018 -0.1869309,-0.354174 -0.1869262,-0.498469 -4.7e-6,-0.402273 0.063397,-0.749889 0.1902058,-1.042852 0.026231,-0.06121 0.039348,-0.109311 0.039353,-0.144294 L 8.302468,21.640332 c -0.3847869,1.285529 -0.7586389,1.928292 -1.1215569,1.928292 -0.1530415,0 -0.278752,-0.047 -0.3771321,-0.141015 -0.098384,-0.09401 -0.1475753,-0.204416 -0.1475733,-0.33122 -2e-6,-0.467861 0.113684,-0.94884 0.3410585,-1.442939 l -0.1902055,-0.0066 -0.9444693,0.02623 c -0.7345875,2e-6 -1.1018809,-0.179271 -1.1018806,-0.537823 -3e-7,-0.166153 0.1268032,-0.32903 0.3804111,-0.488631 0.2536068,-0.159595 0.4940963,-0.239393 0.7214695,-0.239397 0.1530375,4e-6 0.4263212,0.01312 0.8198516,0.03935 0.3891539,0.03061 0.6143396,0.04592 0.675558,0.04591 0.078703,-0.218624 0.1399182,-0.448182 0.1836469,-0.688676 0.083075,-0.349799 0.1530358,-0.599033 0.2098818,-0.747704 -0.1486695,0.01312 -0.4416295,0.05685 -0.8788808,0.131176 -0.3891583,0.06559 -0.6996087,0.09839 -0.9313517,0.09838 -0.6821173,5e-6 -1.0231755,-0.170524 -1.0231748,-0.511587 -7e-7,-0.332308 0.4153905,-0.553121 1.2461746,-0.662441 0.2229977,-0.02623 0.4350658,-0.05902 0.6362047,-0.09838 0.5203299,-0.100562 0.9007406,-0.155219 1.1412335,-0.16397 0.1923884,-0.188013 0.4022702,-0.581541 0.6296461,-1.180587 0.1442899,-0.397893 0.2885836,-0.670084 0.4328819,-0.816572 0.1442893,-0.146472 0.3388672,-0.219712 0.5837342,-0.21972 0.2842102,8e-6 0.4263176,0.15742 0.4263226,0.472234 -5e-6,0.271106 -0.1596028,0.732409 -0.4787931,1.38391 -0.04373,0.09183 -0.076524,0.170536 -0.098382,0.236117 0.1136812,-0.02186 0.6230821,-0.08744 1.5282031,-0.196764 0.04809,-0.144287 0.120239,-0.443806 0.216441,-0.898558 0.240483,-1.158715 0.400081,-1.783988 0.478794,-1.87582 0.153031,-0.214245 0.356354,-0.321373 0.609969,-0.321382 0.174894,9e-6 0.314815,0.05795 0.419764,0.173808 0.104933,0.115882 0.157404,0.250338 0.157412,0.403367 -8e-6,0.166166 -0.109322,0.537832 -0.327941,1.114999 -0.07434,0.192399 -0.126812,0.367301 -0.157411,0.524705 -0.02187,0.0962 -0.05904,0.212075 -0.1115,0.347617 -0.04373,0.174909 -0.0809,0.303899 -0.1115,0.38697 0.773932,-0.118052 1.379528,-0.177081 1.816792,-0.177088 0.389146,7e-6 0.635101,0.0481 0.737866,0.144294 0.102744,0.0962 0.154122,0.251428 0.154132,0.465676 -1e-5,0.118064 -0.04046,0.23503 -0.121338,0.350896 -0.0809,0.115878 -0.18475,0.173814 -0.311544,0.173809 -1.202458,5e-6 -2.059475,0.06559 -2.571055,0.196764 z m -1.390468,0.655881 c 0.06558,-0.192387 0.111493,-0.36073 0.137735,-0.505029 -0.7389654,0.06997 -1.2658563,0.146486 -1.5806745,0.229559 C 8.8315421,19.355684 8.6850622,19.843222 8.57138,20.38104 8.75065,20.36793 8.894944,20.35918 9.0042619,20.35481 9.5551971,20.33295 9.9334216,20.26518 10.138936,20.151486 z"
       id="path3000"
       style="font-size:40.05988312px;font-style:normal;font-variant:normal;font-weight:bold;font-stretch:normal;line-height:125%;letter-spacing:0px;word-spacing:0px;fill:#000000;fill-opacity:1;stroke:none;font-family:Segoe Print;-inkscape-font-specification:Segoe Print Bold" />
    <path
       d="m 20.226392,22.407714 c -1.158728,1.184959 -2.179716,1.777438 -3.062966,1.777438 -0.467864,0 -0.838437,-0.182554 -1.111719,-0.547661 -0.273285,-0.365106 -0.409927,-0.82313 -0.409926,-1.374071 -10e-7,-1.180584 0.544381,-2.416919 1.633145,-3.70901 1.088759,-1.292079 2.212502,-1.938121 3.371229,-1.938129 0.54219,8e-6 0.874503,0.275478 0.99694,0.826411 0.01748,0.05248 0.03497,0.0809 0.05247,0.08526 0.524698,0.118065 0.78705,0.395722 0.787058,0.83297 -8e-6,0.244867 -0.08965,0.732405 -0.268912,1.462615 -0.118066,0.437258 -0.303898,1.311766 -0.557499,2.623525 -0.253614,1.311763 -0.408839,2.232183 -0.465676,2.761261 -0.05685,0.529076 -0.09401,1.11281 -0.1115,1.751203 -0.0088,0.384781 -0.0328,0.644947 -0.07215,0.780499 -0.03936,0.135545 -0.132275,0.261255 -0.278749,0.377132 -0.146486,0.115868 -0.342157,0.173804 -0.587014,0.173808 -0.24924,-4e-6 -0.447097,-0.08527 -0.593573,-0.255794 -0.146484,-0.170532 -0.219724,-0.389159 -0.21972,-0.655881 -4e-6,-0.170532 0.08417,-0.776129 0.252514,-1.816791 0.168339,-1.040666 0.309353,-1.779624 0.423044,-2.216879 0.100563,-0.3979 0.174897,-0.710537 0.223,-0.93791 z m 0.16397,-2.000439 c 0.314817,-0.577171 0.472229,-1.090944 0.472235,-1.541321 -6e-6,-0.227366 -0.05138,-0.416479 -0.154133,-0.567337 -0.10276,-0.150847 -0.239401,-0.226273 -0.409926,-0.226279 -0.529082,6e-6 -1.18059,0.479892 -1.954526,1.439659 -0.773942,0.959777 -1.160912,1.846309 -1.16091,2.659599 -2e-6,0.432883 0.08526,0.649324 0.255794,0.649323 0.411016,1e-6 0.924789,-0.254699 1.541321,-0.764102 0.616524,-0.509399 1.086572,-1.057059 1.410145,-1.642983 z"
       id="path3002"
       style="font-size:40.05988312px;font-style:normal;font-variant:normal;font-weight:bold;font-stretch:normal;line-height:125%;letter-spacing:0px;word-spacing:0px;fill:#000000;fill-opacity:1;stroke:none;font-family:Segoe Print;-inkscape-font-specification:Segoe Print Bold" />
    <path
       d="m 27.283675,14.386285 c -4e-6,0.310459 -0.139926,0.58265 -0.419764,0.816572 -0.279846,0.233939 -0.522522,0.350905 -0.728028,0.350896 -0.262356,9e-6 -0.495193,-0.109304 -0.698514,-0.32794 -0.203326,-0.218619 -0.304987,-0.437245 -0.304985,-0.655882 -2e-6,-0.314813 0.100566,-0.569513 0.301706,-0.764101 0.201134,-0.194568 0.489721,-0.291857 0.865763,-0.291868 0.292957,1.1e-5 0.530167,0.08637 0.711631,0.259073 0.181457,0.172726 0.272187,0.377142 0.272191,0.61325 z m -3.167907,5.391344 0,0.0066 c 0.13992,-0.795798 0.209881,-1.250542 0.209882,-1.364234 -1e-6,-0.323562 0.07105,-0.594659 0.213161,-0.813293 0.142106,-0.21862 0.339964,-0.327933 0.593573,-0.32794 0.29733,7e-6 0.529075,0.06997 0.695235,0.209882 0.166153,0.139928 0.249231,0.297339 0.249234,0.472235 -3e-6,0.174907 -0.08089,0.535642 -0.242676,1.082204 l -0.03935,0.144294 c -0.240492,0.843905 -0.384786,1.532579 -0.432881,2.066026 -0.0481,0.533453 -0.07215,0.964147 -0.07215,1.292086 -3e-6,0.266727 0.04591,0.623089 0.137735,1.069087 0.01311,0.07871 0.01967,0.144294 0.01968,0.196764 -3e-6,0.100569 -0.09511,0.236118 -0.285308,0.406647 -0.190208,0.170529 -0.394624,0.255793 -0.61325,0.255793 -0.577176,0 -0.865764,-0.437254 -0.865763,-1.311762 -1e-6,-0.743331 0.10494,-1.648446 0.314823,-2.715349 0.04372,-0.236113 0.08308,-0.459113 0.118059,-0.668999 z"
       id="path3004"
       style="font-size:40.05988312px;font-style:normal;font-variant:normal;font-weight:bold;font-stretch:normal;line-height:125%;letter-spacing:0px;word-spacing:0px;fill:#000000;fill-opacity:1;stroke:none;font-family:Segoe Print;-inkscape-font-specification:Segoe Print Bold" />
    <path
       d="m 29.441524,24.493416 c -0.721472,0 -1.270225,-0.196765 -1.646263,-0.590293 -0.376039,-0.393528 -0.564058,-0.940095 -0.564058,-1.639703 0,-1.101878 0.448185,-2.293395 1.344557,-3.574554 0.896369,-1.281148 1.775249,-1.921725 2.636643,-1.921732 0.415387,7e-6 0.769562,0.206609 1.062528,0.619808 0.292954,0.413211 0.439434,0.842813 0.43944,1.288806 -6e-6,0.41977 -0.07762,0.702892 -0.232837,0.849367 -0.155232,0.146485 -0.304991,0.219725 -0.449279,0.21972 -0.424142,5e-6 -0.67119,-0.292956 -0.741146,-0.878881 -0.05247,-0.428503 -0.159602,-0.642758 -0.321382,-0.642764 -0.341062,6e-6 -0.791434,0.485358 -1.351116,1.456057 -0.559687,0.970708 -0.83953,1.821167 -0.839528,2.551379 -2e-6,0.590294 0.319193,0.88544 0.957587,0.885439 0.703976,1e-6 1.414513,-0.249233 2.131614,-0.747704 0.336681,-0.240488 0.603406,-0.360733 0.800176,-0.360735 0.240483,2e-6 0.360728,0.120247 0.360734,0.360735 -6e-6,0.336687 -0.385882,0.775034 -1.15763,1.315042 -0.771758,0.540009 -1.581771,0.810013 -2.43004,0.810013 z"
       id="path3006"
       style="font-size:40.05988312px;font-style:normal;font-variant:normal;font-weight:bold;font-stretch:normal;line-height:125%;letter-spacing:0px;word-spacing:0px;fill:#000000;fill-opacity:1;stroke:none;font-family:Segoe Print;-inkscape-font-specification:Segoe Print Bold" />
    <path
       d="m 35.941307,20.87951 0.111501,-0.209882 c 0.529074,-1.062523 1.098597,-1.925007 1.708571,-2.587452 0.609965,-0.662434 1.205722,-0.993653 1.787276,-0.99366 0.445995,7e-6 0.810007,0.122438 1.092045,0.367293 0.282019,0.244869 0.423036,0.535643 0.423043,0.872322 -7e-6,0.209888 -0.04811,0.390255 -0.144293,0.541103 -0.0962,0.150857 -0.229567,0.226284 -0.400088,0.226279 -0.271104,5e-6 -0.518154,-0.111495 -0.741148,-0.3345 -0.157417,-0.144288 -0.282035,-0.216435 -0.373853,-0.216441 -0.327946,6e-6 -0.876699,0.509407 -1.646261,1.528204 -0.769572,1.018805 -1.23306,2.16441 -1.390467,3.436818 -0.0481,0.367294 -0.155228,0.624181 -0.321384,0.770661 -0.166159,0.14648 -0.391343,0.21972 -0.675558,0.21972 -0.301704,0 -0.51596,-0.171622 -0.642764,-0.514867 -0.126804,-0.343244 -0.190204,-0.904022 -0.190204,-1.682336 0,-0.319193 0.0088,-0.749888 0.02622,-1.292086 0.0175,-0.511584 0.06777,-1.136857 0.150852,-1.875821 0.02186,-0.192386 0.03717,-0.343239 0.04591,-0.452558 0.03935,-0.428503 0.08417,-0.722556 0.134456,-0.88216 0.05028,-0.159591 0.167245,-0.309351 0.350894,-0.449279 0.183646,-0.139914 0.386971,-0.209875 0.609971,-0.209882 0.236115,7e-6 0.415388,0.06778 0.537823,0.203323 0.122428,0.135556 0.183642,0.284222 0.183646,0.446 -4e-6,0.205515 -0.09838,0.631838 -0.295146,1.278969 -0.06996,0.223004 -0.128994,0.489729 -0.177087,0.800175 z"
       id="path3008"
       style="font-size:40.05988312px;font-style:normal;font-variant:normal;font-weight:bold;font-stretch:normal;line-height:125%;letter-spacing:0px;word-spacing:0px;fill:#000000;fill-opacity:1;stroke:none;font-family:Segoe Print;-inkscape-font-specification:Segoe Print Bold" />
  </g>
</svg>
