<?xml version="1.0" encoding="UTF-8" standalone="no"?>
<!-- Created with Inkscape (http://www.inkscape.org/) -->

<svg
   xmlns:dc="http://purl.org/dc/elements/1.1/"
   xmlns:cc="http://creativecommons.org/ns#"
   xmlns:rdf="http://www.w3.org/1999/02/22-rdf-syntax-ns#"
   xmlns:svg="http://www.w3.org/2000/svg"
   xmlns="http://www.w3.org/2000/svg"
   version="1.1"
   width="24"
   height="24"
   id="svg3869">
  <defs
     id="defs3871" />
  <metadata
     id="metadata3874">
    <rdf:RDF>
      <cc:Work
         rdf:about="">
        <dc:format>image/svg+xml</dc:format>
        <dc:type
           rdf:resource="http://purl.org/dc/dcmitype/StillImage" />
        <dc:title></dc:title>
      </cc:Work>
    </rdf:RDF>
  </metadata>
  <g
     transform="translate(-0.06241552,0.07810975)"
     id="g3768">
    <path
       d="M 12.38045,3.1889792 A 10.933019,6.9331341 0 0 0 1.1328469,10.123708 10.933019,6.9331341 0 0 0 16.305477,16.499936 l 0.04654,4.157736 3.009706,-5.39885 A 10.933019,6.9331341 0 0 0 22.991984,10.123708 10.933019,6.9331341 0 0 0 12.38045,3.1889792 z"
       id="path2989"
       style="fill:#000000;fill-opacity:0;stroke:#ffffff;stroke-width:1.07330239;stroke-linecap:butt;stroke-linejoin:miter;stroke-miterlimit:4;stroke-opacity:1;stroke-dasharray:none" />
    <path
       d="m 16.772664,12.21562 0.07935,6.499922 3.074961,-5.526507 z"
       id="path2989-1"
       style="fill:#ffffff;fill-opacity:0;stroke:none" />
    <g
       transform="matrix(0.49644597,0,0,0.49644597,3.2947817e-4,0.9084304)"
       id="text3783"
       style="font-size:13.53582764px;font-style:normal;font-variant:normal;font-weight:bold;font-stretch:normal;line-height:125%;letter-spacing:0px;word-spacing:0px;fill:#ffffff;fill-opacity:1;stroke:none;font-family:Segoe Print;-inkscape-font-specification:Segoe Print Bold">
      <path
         d="m 12.048932,16.675595 c -0.06169,0.251159 -0.176255,0.658731 -0.343683,1.222719 -0.03966,0.13219 -0.07051,0.242345 -0.09253,0.330464 1.066291,-0.224711 1.636893,-0.337069 1.711807,-0.337073 0.53314,4e-6 0.849284,0.100245 0.948433,0.300722 0.09913,0.200486 0.148699,0.386648 0.148709,0.558485 -10e-6,0.141002 -0.07381,0.26768 -0.221411,0.380035 -0.147617,0.112361 -0.318357,0.16854 -0.51222,0.168537 -0.0617,3e-6 -0.169647,-0.03084 -0.323855,-0.09253 -0.154226,-0.06168 -0.253365,-0.09253 -0.297419,-0.09253 -0.211505,4e-6 -0.486892,0.03525 -0.826161,0.105749 -0.34369,0.07491 -0.654327,0.112361 -0.93191,0.112358 -0.08813,0.259968 -0.163036,0.473668 -0.224716,0.641101 -0.0661,0.167438 -0.09915,0.308436 -0.09914,0.422995 l 0.02644,0.350292 c -6e-6,0.211499 -0.0672,0.402067 -0.201583,0.571704 -0.134395,0.169639 -0.305135,0.254458 -0.51222,0.254458 -0.158629,0 -0.3007284,-0.09473 -0.4262996,-0.2842 -0.1255816,-0.189465 -0.1883698,-0.3569 -0.1883648,-0.502306 -5e-6,-0.405368 0.063885,-0.75566 0.1916694,-1.050877 0.026432,-0.06168 0.039651,-0.110152 0.039656,-0.145405 L 8.4799146,19.80179 c -0.3877484,1.295422 -0.7644776,1.943132 -1.1301887,1.943131 -0.1542193,10e-7 -0.2808972,-0.04737 -0.3800342,-0.1421 -0.099142,-0.09473 -0.1487112,-0.205988 -0.1487091,-0.333769 -2.1e-6,-0.471461 0.1145588,-0.956142 0.3436832,-1.454044 l -0.1916695,-0.0066 -0.9517379,0.02644 c -0.7402411,3e-6 -1.110361,-0.180651 -1.1103608,-0.541962 -2e-7,-0.167432 0.1277793,-0.331562 0.3833389,-0.492392 0.2555583,-0.160822 0.4978988,-0.241235 0.7270219,-0.241239 0.1542153,4e-6 0.4296022,0.01322 0.8261614,0.03966 0.3921487,0.03085 0.6190675,0.04627 0.680757,0.04627 0.079308,-0.220306 0.1409952,-0.451631 0.1850601,-0.693976 0.083715,-0.352491 0.1542136,-0.603643 0.2114973,-0.753459 -0.1498137,0.01322 -0.4450284,0.05729 -0.885645,0.132186 -0.3921532,0.0661 -0.7049926,0.09914 -0.9385193,0.09914 -0.6873669,5e-6 -1.0310497,-0.171836 -1.0310493,-0.515524 -4e-7,-0.334865 0.4185876,-0.557378 1.2557652,-0.667539 0.2247141,-0.02643 0.4384142,-0.05948 0.6411012,-0.09914 0.5243343,-0.101336 0.9076728,-0.156414 1.1500166,-0.165232 0.193869,-0.18946 0.405366,-0.586017 0.634492,-1.189673 C 8.8962958,14.391012 9.0417,14.116727 9.1871088,13.969111 9.3325085,13.821512 9.5285839,13.747709 9.7753356,13.7477 c 0.2863974,9e-6 0.4295984,0.158632 0.4296044,0.475869 -6e-6,0.273192 -0.160832,0.738045 -0.4824787,1.394561 -0.044067,0.09254 -0.077113,0.171848 -0.099139,0.237934 0.1145559,-0.02202 0.6278767,-0.08812 1.5399647,-0.198279 0.04846,-0.145397 0.121163,-0.447221 0.218106,-0.905473 0.242334,-1.167632 0.40316,-1.797717 0.482479,-1.890257 0.154209,-0.215894 0.359097,-0.323845 0.614664,-0.323855 0.176239,10e-6 0.317237,0.05839 0.422994,0.175146 0.105741,0.116774 0.158615,0.252264 0.158623,0.406472 -8e-6,0.167444 -0.110163,0.54197 -0.330464,1.123579 -0.07491,0.19388 -0.127788,0.370128 -0.158623,0.528743 -0.02204,0.09694 -0.05949,0.213708 -0.112358,0.350293 -0.04407,0.176254 -0.08152,0.306237 -0.112358,0.389948 0.779888,-0.11896 1.390145,-0.178444 1.830773,-0.178451 0.392142,7e-6 0.63999,0.04847 0.743546,0.145404 0.103535,0.09694 0.155308,0.253363 0.155318,0.46926 -10e-6,0.118974 -0.04077,0.236839 -0.122272,0.353597 -0.08153,0.11677 -0.186172,0.175152 -0.313941,0.175146 -1.211712,6e-6 -2.075325,0.0661 -2.590842,0.198279 z m -1.40117,0.660929 c 0.06609,-0.193867 0.112352,-0.363505 0.138795,-0.508915 -0.744652,0.0705 -1.2755978,0.147613 -1.592839,0.231325 -0.1806582,0.440624 -0.3282656,0.931914 -0.4428224,1.473872 0.1806497,-0.01322 0.3260539,-0.02203 0.4362132,-0.02644 0.5551753,-0.02203 0.9363112,-0.09032 1.1434072,-0.204888 z"
         id="path2990"
         style="fill:#ffffff;fill-opacity:1" />
      <path
         d="m 20.495606,20.575077 c -1.167646,1.194079 -2.196491,1.791117 -3.086539,1.791117 -0.471464,0 -0.844889,-0.183958 -1.120275,-0.551875 -0.275388,-0.367917 -0.413081,-0.829465 -0.413081,-1.384647 0,-1.189669 0.548571,-2.435519 1.645714,-3.737554 1.097139,-1.302023 2.22953,-1.953038 3.397175,-1.953045 0.546362,7e-6 0.881233,0.277597 1.004613,0.832771 0.01762,0.05288 0.03524,0.08152 0.05287,0.08592 0.528736,0.118974 0.793107,0.398767 0.793115,0.83938 -8e-6,0.246753 -0.09033,0.738043 -0.270981,1.473872 -0.118974,0.440623 -0.306237,1.321861 -0.56179,2.643716 -0.255565,1.321859 -0.411985,2.249362 -0.46926,2.782512 -0.05729,0.533148 -0.09474,1.121374 -0.112357,1.764681 -0.0088,0.387741 -0.03305,0.64991 -0.0727,0.786505 -0.03966,0.136588 -0.133293,0.263266 -0.280895,0.380034 -0.147612,0.11676 -0.344789,0.175142 -0.591531,0.175147 -0.251158,-5e-6 -0.450538,-0.08592 -0.598141,-0.257763 -0.147612,-0.171845 -0.221415,-0.392155 -0.221411,-0.660929 -4e-6,-0.171845 0.08481,-0.782102 0.254458,-1.830773 0.169633,-1.048675 0.311733,-1.793321 0.426299,-2.233941 0.101337,-0.400962 0.176243,-0.716005 0.224716,-0.945128 z m 0.165232,-2.015834 c 0.31724,-0.581613 0.475863,-1.099341 0.475869,-1.553183 -6e-6,-0.229117 -0.05178,-0.419685 -0.155318,-0.571704 -0.103551,-0.152008 -0.241245,-0.228014 -0.413081,-0.228021 -0.533154,7e-6 -1.189676,0.483586 -1.969569,1.45074 -0.779898,0.967163 -1.169846,1.860518 -1.169844,2.680067 -2e-6,0.436215 0.08592,0.654321 0.257762,0.65432 0.41418,1e-6 0.931907,-0.256659 1.553183,-0.769982 0.621269,-0.513319 1.094935,-1.065195 1.420998,-1.655628 z"
         id="path2992"
         style="fill:#ffffff;fill-opacity:1" />
      <path
         d="m 27.607204,12.491914 c -5e-6,0.312849 -0.141003,0.587135 -0.422995,0.822857 -0.282,0.23574 -0.526543,0.353605 -0.733631,0.353597 -0.264375,8e-6 -0.499004,-0.110146 -0.70389,-0.330465 -0.20489,-0.2203 -0.307334,-0.44061 -0.307332,-0.660929 -2e-6,-0.317236 0.10134,-0.573896 0.304028,-0.769982 0.202682,-0.196065 0.49349,-0.294103 0.872426,-0.294114 0.295211,1.1e-5 0.534247,0.08703 0.717108,0.261067 0.182853,0.174055 0.274281,0.380045 0.274286,0.617969 z m -3.192288,5.432837 0,0.0066 c 0.140997,-0.801922 0.211496,-1.260165 0.211498,-1.374732 -2e-6,-0.326052 0.0716,-0.599236 0.214802,-0.819552 0.143199,-0.220303 0.342579,-0.330458 0.59814,-0.330465 0.299619,7e-6 0.533147,0.07051 0.700585,0.211498 0.167432,0.141004 0.25115,0.299627 0.251153,0.475868 -3e-6,0.176254 -0.08152,0.539765 -0.244544,1.090533 l -0.03965,0.145405 c -0.242344,0.850399 -0.387748,1.544374 -0.436213,2.081926 -0.04847,0.537559 -0.0727,0.971568 -0.0727,1.302031 -2e-6,0.268779 0.04626,0.627883 0.138795,1.077314 0.01322,0.07931 0.01983,0.145405 0.01983,0.198279 -2e-6,0.101343 -0.09584,0.237934 -0.287504,0.409776 -0.191671,0.171841 -0.397661,0.257762 -0.617969,0.257762 -0.581618,0 -0.872427,-0.440619 -0.872426,-1.321858 -10e-7,-0.749051 0.105748,-1.661132 0.317246,-2.736246 0.04406,-0.237931 0.08372,-0.462646 0.118967,-0.674148 z"
         id="path2994"
         style="fill:#ffffff;fill-opacity:1" />
      <path
         d="m 29.781658,22.676831 c -0.727024,0 -1.28,-0.198279 -1.658932,-0.594836 -0.378933,-0.396557 -0.568399,-0.947331 -0.568399,-1.652323 0,-1.110358 0.451634,-2.311044 1.354905,-3.602063 0.903267,-1.291008 1.788911,-1.936515 2.656935,-1.936522 0.418583,7e-6 0.775485,0.208199 1.070705,0.624578 0.295209,0.416391 0.442817,0.849299 0.442823,1.298725 -6e-6,0.423 -0.07822,0.708301 -0.23463,0.855903 -0.156426,0.147612 -0.307338,0.221416 -0.452737,0.221412 -0.427405,4e-6 -0.676355,-0.295211 -0.74685,-0.885645 -0.05288,-0.431802 -0.16083,-0.647705 -0.323855,-0.647711 -0.343687,6e-6 -0.797524,0.489093 -1.361514,1.467263 -0.563995,0.978178 -0.845991,1.835182 -0.845989,2.571014 -2e-6,0.594837 0.32165,0.892255 0.964956,0.892254 0.709394,1e-6 1.4254,-0.251152 2.14802,-0.753459 0.339271,-0.242339 0.608049,-0.363509 0.806334,-0.363511 0.242334,2e-6 0.363504,0.121172 0.36351,0.363511 -6e-6,0.339278 -0.388852,0.780999 -1.166539,1.325163 -0.777698,0.544165 -1.593945,0.816247 -2.448743,0.816247 z"
         id="path2996"
         style="fill:#ffffff;fill-opacity:1" />
      <path
         d="m 36.331466,19.035112 0.112357,-0.211497 c 0.533147,-1.070701 1.107053,-1.939822 1.721721,-2.607366 0.614659,-0.667531 1.215002,-1.0013 1.801031,-1.001307 0.449426,7e-6 0.816241,0.12338 1.100447,0.37012 0.284192,0.246753 0.426292,0.539765 0.4263,0.879036 -8e-6,0.211503 -0.04848,0.393258 -0.145405,0.545266 -0.09694,0.152019 -0.231332,0.228026 -0.403166,0.228021 -0.273191,5e-6 -0.522141,-0.112353 -0.74685,-0.337074 -0.158629,-0.145399 -0.284206,-0.218101 -0.37673,-0.218107 -0.33047,6e-6 -0.883447,0.513327 -1.658932,1.539965 -0.775494,1.026646 -1.24255,2.181068 -1.40117,3.463269 -0.04847,0.37012 -0.156422,0.628984 -0.323855,0.776591 -0.167438,0.147607 -0.394356,0.221411 -0.680757,0.221411 -0.304029,0 -0.519932,-0.172943 -0.64771,-0.518829 -0.127781,-0.345886 -0.191671,-0.910979 -0.19167,-1.695283 -10e-7,-0.32165 0.0088,-0.75566 0.02644,-1.30203 0.01762,-0.515521 0.06829,-1.145606 0.152014,-1.890257 0.02203,-0.193868 0.03745,-0.345881 0.04626,-0.456042 0.03966,-0.431801 0.08482,-0.728117 0.135491,-0.888949 0.05067,-0.16082 0.168535,-0.311732 0.353597,-0.452737 0.185058,-0.140991 0.389946,-0.21149 0.614664,-0.211497 0.237932,7e-6 0.418585,0.0683 0.541962,0.204888 0.12337,0.136599 0.185057,0.286409 0.18506,0.449432 -3e-6,0.207097 -0.09914,0.636701 -0.297418,1.288812 -0.0705,0.22472 -0.129986,0.493498 -0.178451,0.806333 z"
         id="path2998"
         style="fill:#ffffff;fill-opacity:1" />
    </g>
  </g>
  <g
     transform="matrix(0.49644597,0,0,0.49644597,-0.27294678,-0.1697665)"
     id="text3788"
     style="font-size:40px;font-style:normal;font-weight:normal;line-height:125%;letter-spacing:0px;word-spacing:0px;fill:#ff0000;fill-opacity:1;stroke:none;font-family:Sans">
    <path
       d="m 1.625,36.746094 0.8984375,-2.773438 c 2.0703083,0.729192 3.5742131,1.360702 4.5117188,1.894531 C 6.787754,33.510443 6.6575458,31.889351 6.6445313,31.003906 l 2.8320312,0 c -0.039072,1.289091 -0.188811,2.903672 -0.4492187,4.84375 1.3411362,-0.677058 2.8775922,-1.302058 4.6093752,-1.875 l 0.898437,2.773438 c -1.653658,0.546898 -3.27475,0.911481 -4.863281,1.09375 0.794261,0.690126 1.914051,1.920593 3.359375,3.691406 L 10.6875,43.191406 C 9.9322821,42.162778 9.0403559,40.76304 8.0117188,38.992187 7.0481704,40.828144 6.2018171,42.227882 5.4726563,43.191406 L 3.1679688,41.53125 C 4.6783811,39.669291 5.7591092,38.438824 6.4101563,37.839844 4.7304644,37.514346 3.1354139,37.149763 1.625,36.746094 z"
       id="path3797" />
  </g>
  <g
     transform="matrix(0.49644597,0,0,0.49644597,-63.731268,-2.4865684)"
     id="text3792"
     style="font-size:35.94126892px;font-style:normal;font-weight:normal;line-height:125%;letter-spacing:0px;word-spacing:0px;fill:#ff0000;fill-opacity:1;stroke:none;font-family:Sans">
    <path
       d="m 88.17227,63.164857 -0.96522,-13.63592 0,-5.703571 3.913527,0 0,5.703571 -0.912571,13.63592 z m -0.824824,6.387999 0,-3.597636 3.632735,0 0,3.597636 z"
       id="path3800" />
  </g>
</svg>
